<?xml version="1.0" encoding="UTF-8"?>
<svg id="Ebene_1" data-name="Ebene 1" xmlns="http://www.w3.org/2000/svg" viewBox="0 0 459.1 92.74">
  <defs>
    <style>
      .cls-1 {
        fill: #101820;
      }
    </style>
  </defs>
  <g>
    <path class="cls-1" d="M41.09,30.01s-.49,1.08.49.69,8.24-4.12,8.24-4.12c0,0,.59-.39.59.49s0,31.19,0,31.19c0,0,.39,7.65-3.51,15.43-3.36,6.68-7.63,13.3-20.01,19.04,0,0,22.26,1.14,29.32-27.41l-.02-65.32-15.09,30.01Z"/>
    <path class="cls-1" d="M22.93,44.06c6.36,3.17,9.33,3.01,15.5,8.41,6.17,5.39,7.78,13.58,7.78,13.58,0,0,1.65-8.09.24-14.55-1.41-6.47-4.54-9.65-7.51-11.78-2.88-2.06-14.61-7.27-14.61-7.27C6.97,24.78,7.01,8.18,7.01,8.18c-2.69,9.56-1.42,14.65-1.42,14.65,1.88,11.46,10.97,18.07,17.33,21.23Z"/>
    <path class="cls-1" d="M21.96,56.23s7.26,1.14,12.16,3.61c4.9,2.46,6.73,6.64,7.57,8.54.84,1.9,1.32,4,1.32,4l-.39-4.84c-.64-4.41-1.63-10.17-9-14.76s-14.9-4.83-22.88-10.26C2.78,37.09.86,27.91.86,27.91c-1.19,4.57-1.17,8.07.21,12.89,1.41,4.9,6.16,8.93,9.73,11.37s11.16,4.07,11.16,4.07Z"/>
    <path class="cls-1" d="M35.84,78.95c-.62,4.67-2.92,6.38-1.37,5.26,1.55-1.13,2.91-2.76,4.32-5.89,1.68-3.71,1.1-6.31.11-9.01-.99-2.7-2.62-4.97-6.82-6.67-4.21-1.7-4.82-1.44-10.25-2.81-1.74-.44-5.43-1.24-8.63-2.88-3.2-1.63-5.49-3.42-5.49-3.42-.13,1.15.89,4.64,4.6,7.91,3.33,2.94,6.06,4.87,9.65,5.55,2.05.39,5.67.77,8.89,2.13,2.78.83,5.61,5.16,4.99,9.83Z"/>
    <path class="cls-1" d="M65.54,73.7c-3.91-7.78-3.55-15.43-3.55-15.43,0,0,0-30.31,0-31.19s.59-.49.59-.49c0,0,7.26,3.72,8.24,4.11s.49-.69.49-.69L56.2.02l.02,65.32c7.08,28.54,29.34,27.39,29.34,27.39-12.38-5.73-16.66-12.34-20.02-19.03Z"/>
    <path class="cls-1" d="M65.97,51.51c-1.4,6.47.25,14.55.25,14.55,0,0,1.6-8.19,7.77-13.59,6.17-5.4,9.14-5.24,15.5-8.42s15.44-9.79,17.32-21.25c0,0,1.27-5.08-1.43-14.64,0,0,.06,16.6-17.29,24.28,0,0-11.73,5.21-14.61,7.28-2.97,2.13-6.1,5.32-7.5,11.79Z"/>
    <path class="cls-1" d="M111.54,27.89s-1.91,9.19-9.88,14.62c-7.97,5.44-15.51,5.68-22.87,10.28-7.36,4.6-8.35,10.36-8.99,14.76l-.39,4.84s.48-2.11,1.32-4c.84-1.9,2.66-6.08,7.56-8.55,4.9-2.47,12.16-3.62,12.16-3.62,0,0,7.59-1.63,11.16-4.07,3.57-2.44,8.32-6.47,9.72-11.37,1.38-4.82,1.39-8.32.2-12.89Z"/>
    <path class="cls-1" d="M99.22,56.94c-3.2,1.64-6.89,2.44-8.63,2.88-5.43,1.38-6.04,1.12-10.24,2.82-4.2,1.7-5.83,3.97-6.82,6.67-.99,2.7-1.57,5.3.11,9.01,1.41,3.12,2.78,4.76,4.33,5.88s-.75-.59-1.38-5.25,2.21-9,4.98-9.83c3.21-1.35,6.83-1.74,8.89-2.13,3.59-.69,6.31-2.61,9.65-5.56,3.71-3.28,4.72-6.76,4.59-7.92,0,0-2.29,1.8-5.48,3.43Z"/>
  </g>
  <g>
    <path class="cls-1" d="M179.09,26.24c-.72.29-1.21.84-1.48,1.66-.26.82-.4,2.14-.4,3.96v35.71c0,1.82.13,3.14.4,3.96.26.82.76,1.37,1.48,1.66.72.29,1.9.48,3.53.58v1.44c-2.35-.14-6-.22-10.94-.22s-8.62.07-11.3.22v-1.44c1.58-.09,2.75-.29,3.49-.58.74-.29,1.25-.84,1.51-1.66.26-.82.4-2.14.4-3.96v-17.28h-19.08v17.28c0,1.82.13,3.14.4,3.96.26.82.76,1.37,1.48,1.66.72.29,1.9.48,3.53.58v1.44c-2.59-.14-6.22-.22-10.87-.22-5.14,0-8.93.07-11.38.22v-1.44c1.58-.09,2.75-.29,3.49-.58.74-.29,1.25-.84,1.51-1.66.26-.82.4-2.14.4-3.96V31.86c0-1.82-.13-3.14-.4-3.96-.26-.82-.77-1.37-1.51-1.66-.74-.29-1.91-.48-3.49-.58v-1.44c2.45.14,6.24.22,11.38.22,4.66,0,8.28-.07,10.87-.22v1.44c-1.63.1-2.81.29-3.53.58-.72.29-1.21.84-1.48,1.66-.26.82-.4,2.14-.4,3.96v16.99h19.08v-16.99c0-1.82-.13-3.14-.4-3.96-.26-.82-.77-1.37-1.51-1.66-.74-.29-1.91-.48-3.49-.58v-1.44c2.69.14,6.46.22,11.3.22s8.59-.07,10.94-.22v1.44c-1.63.1-2.81.29-3.53.58Z"/>
    <path class="cls-1" d="M224.52,75.2c-3.27-.14-8.76-.22-16.49-.22-10.46,0-18.29.07-23.47.22v-1.44c1.58-.09,2.75-.29,3.49-.58.74-.29,1.25-.84,1.51-1.66.26-.82.4-2.14.4-3.96V31.86c0-1.82-.13-3.14-.4-3.96-.26-.82-.77-1.37-1.51-1.66-.74-.29-1.91-.48-3.49-.58v-1.44c5.18.14,13.01.22,23.47.22,7.06,0,12.07-.07,15.05-.22-.34,3.98-.5,7.54-.5,10.66,0,2.11.07,3.74.22,4.9h-1.66c-.72-5.14-2.02-8.74-3.89-10.8-1.87-2.06-4.51-3.1-7.92-3.1h-2.95c-1.49,0-2.57.12-3.24.36-.67.24-1.13.71-1.37,1.4-.24.7-.36,1.81-.36,3.35v17.86h2.3c2.54,0,4.48-.94,5.8-2.81,1.32-1.87,2.24-4.1,2.77-6.7h1.66c-.14,2.02-.22,4.27-.22,6.77v3.46c0,2.45.14,5.86.43,10.22h-1.66c-1.01-6.34-3.94-9.5-8.78-9.5h-2.3v18.14c0,1.54.12,2.65.36,3.35.24.7.7,1.16,1.37,1.4.67.24,1.75.36,3.24.36h3.53c3.41,0,6.16-1.16,8.24-3.49,2.09-2.33,3.56-6.27,4.43-11.84h1.66c-.14,1.58-.22,3.6-.22,6.05,0,4.42.17,8.06.5,10.94Z"/>
    <path class="cls-1" d="M276.15,72.03c-1.3,1.49-2.69,2.56-4.18,3.2-1.49.65-3.29.97-5.4.97-2.79,0-4.98-.59-6.59-1.76s-2.65-3.18-3.13-6.01l-1.3-7.2c-.62-3.5-1.38-6.08-2.27-7.74-.89-1.66-2.37-2.48-4.43-2.48h-4.68v16.56c0,1.82.13,3.14.4,3.96.26.82.76,1.37,1.48,1.66s1.9.48,3.53.58v1.44c-2.59-.14-6.22-.22-10.87-.22-5.14,0-8.93.07-11.38.22v-1.44c1.58-.09,2.75-.29,3.49-.58.74-.29,1.25-.84,1.51-1.66.26-.82.4-2.14.4-3.96V31.86c0-1.82-.13-3.14-.4-3.96-.26-.82-.77-1.37-1.51-1.66-.74-.29-1.91-.48-3.49-.58v-1.44c2.45.14,6.1.22,10.94.22l7.99-.07c.96-.05,2.06-.07,3.31-.07,6.62,0,11.6,1.08,14.94,3.24,3.34,2.16,5,5.26,5,9.29,0,3.41-1.25,6.41-3.74,9-2.5,2.59-6.62,4.22-12.38,4.9,4.32.38,7.54,1.32,9.65,2.81,2.11,1.49,3.48,3.72,4.1,6.7l1.66,7.42c.38,1.92.83,3.26,1.33,4.03.5.77,1.21,1.15,2.12,1.15.58-.05,1.07-.19,1.48-.43.41-.24.88-.65,1.4-1.22l1.01.86ZM245.8,26.17c-.6.34-1.02.94-1.26,1.8-.24.86-.36,2.16-.36,3.89v17.71h3.1c3.94,0,6.64-1.04,8.1-3.13,1.46-2.09,2.2-5.03,2.2-8.82s-.7-6.91-2.09-8.93c-1.39-2.02-3.67-3.02-6.84-3.02-1.3,0-2.24.17-2.84.5Z"/>
    <path class="cls-1" d="M317.33,36.46c0,2.26.07,4.08.22,5.47h-1.66c-1.15-5.9-2.72-10.06-4.72-12.46-1.99-2.4-4.72-3.6-8.17-3.6h-1.66v41.11c0,2.02.2,3.48.61,4.39.41.91,1.13,1.52,2.16,1.84,1.03.31,2.68.49,4.93.54v1.44c-6.05-.14-10.61-.22-13.68-.22s-7.42.07-13.18.22v-1.44c2.26-.05,3.9-.23,4.93-.54,1.03-.31,1.75-.92,2.16-1.84.41-.91.61-2.38.61-4.39V25.88h-1.58c-2.3,0-4.26.5-5.87,1.51-1.61,1.01-2.99,2.68-4.14,5-1.15,2.33-2.14,5.51-2.95,9.54h-1.66c.14-1.39.22-3.22.22-5.47,0-3.6-.17-7.68-.5-12.24,4.37.14,11.78.22,22.25.22s17.86-.07,22.18-.22c-.34,4.56-.5,8.64-.5,12.24Z"/>
    <path class="cls-1" d="M343.25,24.01c1.49.48,3,1.18,4.54,2.09.53.29,1,.53,1.4.72.41.19.76.29,1.04.29.43,0,.77-.25,1.01-.76.24-.5.43-1.31.58-2.41h1.66c-.24,3.22-.36,8.69-.36,16.42h-1.66c-.19-2.59-.78-5.06-1.76-7.42-.98-2.35-2.38-4.26-4.18-5.72-1.8-1.46-3.9-2.2-6.3-2.2s-4.26.66-5.72,1.98c-1.46,1.32-2.2,3.11-2.2,5.36,0,1.68.36,3.14,1.08,4.39.72,1.25,1.73,2.39,3.02,3.42,1.3,1.03,3.29,2.44,5.98,4.21l2.3,1.58c2.83,1.87,5.06,3.5,6.7,4.9,1.63,1.39,2.96,3.01,4,4.86,1.03,1.85,1.55,4,1.55,6.44,0,3.07-.79,5.65-2.38,7.74s-3.73,3.66-6.44,4.72c-2.71,1.06-5.72,1.58-9.04,1.58-2.69,0-4.92-.24-6.7-.72-1.78-.48-3.41-1.13-4.9-1.94-1.06-.67-1.87-1.01-2.45-1.01-.43,0-.77.25-1.01.76-.24.5-.43,1.31-.58,2.41h-1.66c.19-3.02.29-9.5.29-19.44h1.66c.33,5.38,1.54,9.73,3.6,13.07,2.06,3.34,5.23,5,9.5,5,2.59,0,4.73-.7,6.41-2.09,1.68-1.39,2.52-3.38,2.52-5.98s-.86-4.99-2.59-6.91c-1.73-1.92-4.46-4.08-8.21-6.48-2.88-1.87-5.18-3.5-6.91-4.9-1.73-1.39-3.14-3.04-4.25-4.93-1.1-1.9-1.66-4.09-1.66-6.59,0-2.88.73-5.32,2.2-7.31,1.46-1.99,3.42-3.47,5.87-4.43,2.45-.96,5.14-1.44,8.06-1.44,2.5,0,4.49.24,5.98.72Z"/>
    <path class="cls-1" d="M391.92,24.44c2.02.82,3.98,1.97,5.9,3.46.53.43.98.65,1.37.65.96,0,1.58-1.44,1.87-4.32h1.66c-.19,3.26-.29,9.07-.29,17.42h-1.66c-.43-3.55-1.01-6.26-1.73-8.14-.72-1.87-1.94-3.5-3.67-4.9-1.2-1.15-2.59-2.03-4.18-2.63-1.58-.6-3.24-.9-4.97-.9-4.85,0-8.45,2.36-10.8,7.09-2.35,4.73-3.53,10.62-3.53,17.68s1.22,12.86,3.67,17.57c2.45,4.71,6.1,7.06,10.94,7.06,1.63,0,3.25-.3,4.86-.9,1.61-.6,2.96-1.48,4.07-2.63,1.78-1.34,3.01-3.02,3.71-5.04.7-2.02,1.24-4.97,1.62-8.86h1.66c0,8.69.09,14.74.29,18.14h-1.66c-.14-1.54-.35-2.63-.61-3.28-.26-.65-.64-.97-1.12-.97-.38,0-.89.19-1.51.58-2.16,1.54-4.22,2.7-6.19,3.49-1.97.79-4.34,1.19-7.13,1.19-5.09,0-9.54-1.03-13.36-3.1-3.82-2.06-6.78-5.05-8.89-8.96s-3.17-8.58-3.17-14,1.08-9.96,3.24-14.04c2.16-4.08,5.17-7.25,9.04-9.5,3.86-2.26,8.27-3.38,13.21-3.38,2.88,0,5.33.41,7.34,1.22Z"/>
    <path class="cls-1" d="M455.57,26.24c-.72.29-1.21.84-1.48,1.66-.26.82-.4,2.14-.4,3.96v35.71c0,1.82.13,3.14.4,3.96.26.82.76,1.37,1.48,1.66.72.29,1.9.48,3.53.58v1.44c-2.35-.14-6-.22-10.94-.22s-8.62.07-11.3.22v-1.44c1.58-.09,2.75-.29,3.49-.58s1.25-.84,1.51-1.66c.26-.82.4-2.14.4-3.96v-17.28h-19.08v17.28c0,1.82.13,3.14.4,3.96.26.82.76,1.37,1.48,1.66s1.9.48,3.53.58v1.44c-2.59-.14-6.22-.22-10.87-.22-5.14,0-8.93.07-11.38.22v-1.44c1.58-.09,2.75-.29,3.49-.58.74-.29,1.25-.84,1.51-1.66.26-.82.4-2.14.4-3.96V31.86c0-1.82-.13-3.14-.4-3.96-.26-.82-.77-1.37-1.51-1.66-.75-.29-1.91-.48-3.49-.58v-1.44c2.45.14,6.24.22,11.38.22,4.66,0,8.28-.07,10.87-.22v1.44c-1.63.1-2.81.29-3.53.58s-1.21.84-1.48,1.66c-.26.82-.4,2.14-.4,3.96v16.99h19.08v-16.99c0-1.82-.13-3.14-.4-3.96-.26-.82-.77-1.37-1.51-1.66s-1.91-.48-3.49-.58v-1.44c2.69.14,6.46.22,11.3.22s8.59-.07,10.94-.22v1.44c-1.63.1-2.81.29-3.53.58Z"/>
  </g>
</svg>